<svg width="60" height="60" viewBox="0 0 60 60" fill="none" xmlns="http://www.w3.org/2000/svg">
<path d="M30 0.152466C13.5 0.152466 0 13.5827 0 29.9974C0 46.4122 13.5 59.8424 30 59.8424C46.5 59.8424 60 46.4122 60 29.9974C60 13.5827 46.5 0.152466 30 0.152466ZM30 53.8734C16.8 53.8734 6 43.1292 6 29.9974C6 16.8656 16.8 6.12146 30 6.12146C43.2 6.12146 54 16.8656 54 29.9974C54 43.1292 43.2 53.8734 30 53.8734Z" fill="white"/>
<path d="M35.1 18.9548C33.9 17.761 32.1 17.761 30.9 18.9548L21.9 27.9083C20.7 29.1021 20.7 30.8928 21.9 32.0866L30.9 41.0401C31.5 41.637 32.4 41.9354 33 41.9354C33.6 41.9354 34.5 41.637 35.1 41.0401C36.3 39.8463 36.3 38.0556 35.1 36.8618L28.2 29.9974L35.1 23.1331C36.3 21.9393 36.3 20.1486 35.1 18.9548Z" fill="white"/>
</svg>
