<svg width="60" height="60" viewBox="0 0 60 60" fill="none" xmlns="http://www.w3.org/2000/svg">
<path d="M30 59.8424C46.5 59.8424 60 46.4122 60 29.9974C60 13.5827 46.5 0.152485 30 0.152485C13.5 0.152485 0 13.5827 0 29.9974C0 46.4122 13.5 59.8424 30 59.8424ZM30 6.12148C43.2 6.12148 54 16.8657 54 29.9974C54 43.1292 43.2 53.8734 30 53.8734C16.8 53.8734 6 43.1292 6 29.9974C6 16.8657 16.8 6.12148 30 6.12148Z" fill="white"/>
<path d="M24.9 41.0401C26.1 42.2339 27.9 42.2339 29.1 41.0401L38.1 32.0866C39.3 30.8928 39.3 29.1021 38.1 27.9083L29.1 18.9548C28.5 18.3579 27.6 18.0595 27 18.0595C26.4 18.0595 25.5 18.3579 24.9 18.9548C23.7 20.1486 23.7 21.9393 24.9 23.1331L31.8 29.9974L24.9 36.8618C23.7 38.0556 23.7 39.8463 24.9 41.0401Z" fill="white"/>
</svg>
